<?xml version="1.0" encoding="utf-8"?>
<!-- Generator: Adobe Illustrator 16.0.0, SVG Export Plug-In . SVG Version: 6.00 Build 0)  -->
<!DOCTYPE svg PUBLIC "-//W3C//DTD SVG 1.1//EN" "http://www.w3.org/Graphics/SVG/1.1/DTD/svg11.dtd">
<svg version="1.1" id="Layer_1" xmlns="http://www.w3.org/2000/svg" xmlns:xlink="http://www.w3.org/1999/xlink" x="0px" y="0px"
	 width="14px" height="11px" viewBox="-1 0 14 11" enable-background="new -1 0 14 11" xml:space="preserve">
<g>
	<path fill="#f6f6f6" d="M2,10.5c0-0.1,0-0.1,0-0.2l0.7-3.5c0,0-2.4-2.1-2.5-2.2C0.1,4.5,0,4.4,0,4.2C0,4,0.2,3.7,0.5,3.7l3.8-0.5
		l1.3-2.8C5.707,0.161,5.8,0,6.1,0H-1v11h3.5C2.2,11,2,10.8,2,10.5z"/>
	<path fill="#f6f6f6" d="M6.1,9.1L2.8,10.9C2.7,11,2.6,11,2.5,11h7.2c-0.101,0-0.2,0-0.3-0.1C9.3,10.8,6.1,9.1,6.1,9.1z"/>
	<path fill="#f6f6f6" d="M6.1,0c0.2,0,0.4,0.2,0.5,0.4L7.9,3.2l3.6,0.5c0.3,0,0.5,0.2,0.5,0.5c0,0.2-0.141,0.222-0.3,0.4
		C11.6,4.7,9.4,6.8,9.4,6.8s0.8,3.4,0.8,3.5c0,0.101,0,0.101,0,0.2c0,0.3-0.2,0.5-0.5,0.5H13V0H6.1z"/>
</g>
</svg>
